<?xml version="1.0" standalone="no"?>
<!DOCTYPE svg PUBLIC "-//W3C//DTD SVG 20010904//EN"
 "http://www.w3.org/TR/2001/REC-SVG-20010904/DTD/svg10.dtd">
<svg version="1.0" xmlns="http://www.w3.org/2000/svg"
 width="2000.000000pt" height="1500.000000pt" viewBox="0 0 2000.000000 1500.000000"
 preserveAspectRatio="xMidYMid meet">

<g transform="translate(0.000000,1500.000000) scale(0.100000,-0.100000)"
fill="#000000" stroke="none">
<path d="M3780 9081 c-77 -25 -115 -46 -167 -94 -58 -53 -94 -107 -124 -182
-23 -59 -23 -68 -27 -447 l-3 -388 1232 0 c678 0 1230 2 1228 4 -2 2 -296 256
-652 565 l-649 561 -391 -1 c-347 0 -398 -2 -447 -18z"/>
<path d="M6110 9076 c14 -13 426 -371 915 -795 490 -425 891 -775 893 -780 1
-4 -418 -373 -933 -820 l-936 -811 1704 0 c1189 0 1721 3 1763 11 84 15 156
52 222 114 64 59 102 121 126 206 15 50 16 182 14 1310 -3 1207 -4 1256 -22
1299 -55 129 -163 233 -282 270 -65 20 -84 20 -1777 20 l-1712 0 25 -24z
m2802 -1106 c171 -53 311 -205 347 -378 59 -283 -134 -560 -422 -604 -414 -63
-722 398 -506 758 39 65 132 155 192 186 119 61 268 76 389 38z"/>
<path d="M15380 8917 c-75 -22 -143 -60 -188 -107 -35 -36 -181 -306 -732
-1360 l-689 -1315 602 -3 c448 -2 603 1 608 9 4 7 26 68 49 136 l42 123 373 0
373 0 54 -135 53 -135 693 0 c380 0 692 3 692 6 0 4 -330 596 -732 1317 -810
1449 -779 1399 -903 1447 -73 28 -225 37 -295 17z m203 -1600 c70 -199 127
-365 127 -369 0 -5 -124 -8 -275 -8 -151 0 -275 3 -275 8 0 13 285 732 290
732 3 0 63 -163 133 -363z"/>
<path d="M11945 8910 c-403 -12 -888 -31 -912 -36 l-23 -4 0 -1364 0 -1365 53
-5 c61 -6 426 -21 922 -37 775 -25 1198 20 1490 160 123 59 209 123 273 204
101 127 140 237 149 422 17 344 -89 579 -329 735 -48 31 -118 69 -157 85 -39
15 -71 31 -71 35 0 4 14 13 31 20 94 39 227 149 279 229 94 147 104 361 24
519 -122 245 -445 370 -1039 402 -205 11 -303 11 -690 0z m645 -700 c75 -38
96 -104 65 -207 -28 -93 -125 -179 -302 -267 -80 -40 -256 -116 -268 -116 -3
0 -5 101 -5 225 l0 224 73 43 c39 23 102 55 138 70 146 61 220 68 299 28z m98
-890 c72 -33 92 -125 52 -234 -27 -71 -114 -153 -218 -205 -64 -32 -424 -181
-438 -181 -2 0 -4 98 -4 218 l0 217 148 77 c242 126 360 154 460 108z"/>
<path d="M3460 6668 c0 -409 6 -466 57 -561 61 -113 183 -202 312 -227 30 -6
208 -10 406 -10 l351 0 655 566 c360 311 663 574 674 585 19 19 0 19 -1218 19
l-1237 0 0 -372z"/>
</g>
</svg>
